<?xml version="1.0" encoding="UTF-8" standalone="no" ?>
<!DOCTYPE svg PUBLIC "-//W3C//DTD SVG 1.1//EN" "http://www.w3.org/Graphics/SVG/1.1/DTD/svg11.dtd">
<svg xmlns="http://www.w3.org/2000/svg" xmlns:xlink="http://www.w3.org/1999/xlink" version="1.1" width="1280" height="1024" viewBox="0 0 1280 1024" xml:space="preserve">
<desc>Created with Fabric.js 5.3.0</desc>
<defs>
</defs>
<g transform="matrix(1 0 0 1 640 512)" id="background-logo"  >
<rect style="stroke: none; stroke-width: 0; stroke-dasharray: none; stroke-linecap: butt; stroke-dashoffset: 0; stroke-linejoin: miter; stroke-miterlimit: 4; fill: rgb(250,248,242); fill-rule: nonzero; opacity: 1;"  paint-order="stroke"  x="-640" y="-512" rx="0" ry="0" width="1280" height="1024" />
</g>
<g transform="matrix(1.9211538461538462 0 0 1.9211538461538462 640 382.5998171717068)" id="logo-logo"  >
<g style=""  paint-order="stroke"   >
		<g transform="matrix(0.018612418383755238 0 0 -0.018612418383755235 0.00009306209182113889 -0.5004879303391476)"  >
<linearGradient id="SVGID_1_3_1949338" gradientUnits="userSpaceOnUse" gradientTransform="matrix(9756.24 0 0 9756.24 3121.88 8000)"  x1="0" y1="0" x2="1" y2="0">
<stop offset="0%" style="stop-color:rgb(240,98,146);stop-opacity: 1"/>
<stop offset="100%" style="stop-color:rgb(1,87,155);stop-opacity: 1"/>
</linearGradient>
<path style="stroke: none; stroke-width: 1; stroke-dasharray: none; stroke-linecap: butt; stroke-dashoffset: 0; stroke-linejoin: miter; stroke-miterlimit: 4; fill: url(#SVGID_1_3_1949338); fill-rule: evenodd; opacity: 1;"  paint-order="stroke"  transform=" translate(-7999.995, -8026.88)" d="M 8000 12143 C 6901.21 12143 5847.41 11706.5 5070.45 10929.6 C 4293.48 10152.6 3856.99 9098.79 3856.99 8000 C 3859.49 5966.17 5337.9 4234.91 7346.25 3913.98 L 4574.04 6686.19 L 8000 10112.1 L 11426 6686.19 L 8650.53 3910.76 C 10661.4 4230.46 12141.8 5963.91 12143 8000 C 12143 9098.79 11706.5 10152.6 10929.6 10929.6 C 10152.6 11706.5 9098.800000000001 12143 8000 12143 z M 8000 11289.8 L 11426 7863.8099999999995 L 11091.7 7529.58 L 8254.59 10366.7 C 8113.9800000000005 10507.300000000001 7886.04 10507.300000000001 7745.43 10366.7 L 4908.27 7529.58 L 4574.05 7863.81 L 8000 11289.8" stroke-linecap="round" />
</g>
		<g transform="matrix(0.018612418383755238 0 0 -0.018612418383755235 0 0)"  >
<linearGradient id="SVGID_2_4_1949339" gradientUnits="userSpaceOnUse" gradientTransform="matrix(9756.24 0 0 9756.24 3121.88 8000)"  x1="0" y1="0" x2="1" y2="0">
<stop offset="0%" style="stop-color:rgb(240,98,146);stop-opacity: 1"/>
<stop offset="100%" style="stop-color:rgb(1,87,155);stop-opacity: 1"/>
</linearGradient>
<path style="stroke: none; stroke-width: 1; stroke-dasharray: none; stroke-linecap: butt; stroke-dashoffset: 0; stroke-linejoin: miter; stroke-miterlimit: 4; fill: url(#SVGID_2_4_1949339); fill-rule: evenodd; opacity: 1;"  paint-order="stroke"  transform=" translate(-7999.990000000001, -7999.990000000001)" d="M 8000 12878.1 C 6706.3 12878.1 5465.4400000000005 12364.1 4550.65 11449.4 C 3635.86 10534.6 3121.88 9293.7 3121.88 8000 C 3121.88 6706.29 3635.86 5465.44 4550.65 4550.65 C 5465.44 3635.86 6706.3 3121.88 8000 3121.88 C 9293.71 3121.88 10534.6 3635.86 11449.4 4550.65 C 12364.1 5465.44 12878.1 6706.289999999999 12878.1 8000 C 12878.1 9293.7 12364.1 10534.6 11449.4 11449.4 C 10534.6 12364.1 9293.71 12878.1 8000 12878.1 z M 8000 12601.4 C 9220.43 12601.4 10390.7 12116.699999999999 11253.7 11253.699999999999 C 12116.7 10390.699999999999 12601.400000000001 9220.419999999998 12601.400000000001 7999.999999999999 C 12601.400000000001 6779.569999999999 12116.7 5609.279999999999 11253.7 4746.299999999999 C 10390.7 3883.329999999999 9220.43 3398.579999999999 8000.000000000001 3398.579999999999 C 6779.570000000001 3398.579999999999 5609.27 3883.329999999999 4746.300000000001 4746.299999999999 C 3883.330000000001 5609.279999999999 3398.580000000001 6779.57 3398.580000000001 7999.999999999999 C 3398.580000000001 9220.419999999998 3883.330000000001 10390.699999999999 4746.300000000001 11253.699999999999 C 5609.270000000001 12116.699999999999 6779.5700000000015 12601.4 8000.000000000001 12601.4" stroke-linecap="round" />
</g>
</g>
</g>
<g transform="matrix(1.9211538461538462 0 0 1.9211538461538462 640.4370625 668.8587230011781)" id="text-logo"  >
<g style=""  paint-order="stroke"   >
		<g transform="matrix(1 0 0 1 0 0)" id="text-logo-path-0"  >
<path style="stroke: none; stroke-width: 0; stroke-dasharray: none; stroke-linecap: butt; stroke-dashoffset: 0; stroke-linejoin: miter; stroke-miterlimit: 4; fill: rgb(107,92,151); fill-rule: nonzero; opacity: 1;"  paint-order="stroke"  transform=" translate(-307.03000000000003, 22.75)" d="M 2.6 -45.5 L 2.6 0 L 9.75 0 L 9.75 -26.91 L 21 0 L 28.14 0 L 28.14 -45.5 L 21 -45.5 L 21 -17.09 L 9.1 -45.5 Z M 46.48 -45.5 L 46.48 0 L 67.92 0 L 67.92 -7.15 L 53.63 -7.15 L 53.63 -19.82 L 66.63 -19.82 L 66.63 -26.98 L 53.63 -26.98 L 53.63 -38.35 L 67.92 -38.35 L 67.92 -45.5 Z M 91.32 -45.5 L 83.52 0 L 90.67 0 L 91.45 -4.55 L 101.14 -4.55 L 101.92 0 L 109.07 0 L 101.27 -45.5 Z M 92.69 -11.7 L 96.33 -32.83 L 99.9 -11.7 Z M 138.58 -45.5 L 125.84 -45.5 L 125.84 0 L 132.99 0 L 132.99 -19.89 L 138.58 -19.89 C 142.68 -19.89 144.23 -18.39 144.23 -14.24 L 144.23 0 L 151.38 0 L 151.38 -14.24 C 151.38 -18.07 150.09 -21.25 147.81 -23.46 C 150.09 -25.74 151.38 -28.99 151.38 -32.7 C 151.38 -40.43 146.06 -45.5 138.58 -45.5 Z M 132.99 -27.04 L 132.99 -38.35 L 138.58 -38.35 C 142.68 -38.35 144.23 -36.86 144.23 -32.7 C 144.23 -28.67 142.68 -27.04 138.58 -27.04 Z M 180.96 -45.5 L 168.94 -45.5 L 168.94 0 L 180.9 0 C 189.34 0 194.48 -5.59 194.48 -13.59 C 194.48 -17.94 192.99 -21.45 190.45 -23.79 C 192.53 -26 193.7 -29.05 193.7 -32.76 C 193.7 -40.23 188.69 -45.5 180.96 -45.5 Z M 176.09 -7.15 L 176.09 -20.02 L 180.9 -20.02 C 185.58 -20.02 187.33 -18.39 187.33 -13.59 C 187.33 -8.91 185.71 -7.15 180.9 -7.15 Z M 176.09 -27.17 L 176.09 -38.35 L 180.96 -38.35 C 185.12 -38.35 186.55 -36.86 186.55 -32.76 C 186.55 -28.6 185.06 -27.17 180.96 -27.17 Z M 215.87 -18.85 L 215.87 0 L 223.02 0 L 223.02 -18.85 L 232.12 -45.5 L 224.32 -45.5 L 219.44 -27.3 L 214.57 -45.5 L 206.77 -45.5 Z M 290.75 -33.41 L 290.75 -30.16 L 297.9 -30.16 L 297.9 -33.41 C 297.9 -41.15 292.63 -46.15 285.16 -46.15 C 277.36 -46.15 272.35 -40.88 272.35 -33.41 C 272.35 -26.26 278.27 -22.82 282.75 -20.21 C 287.56 -17.42 290.75 -15.67 290.75 -12.09 C 290.75 -7.93 289.25 -6.5 285.16 -6.5 C 280.93 -6.5 279.5 -8 279.5 -12.09 L 279.5 -15.34 L 272.35 -15.34 L 272.35 -12.09 C 272.35 -4.62 277.36 0.65 285.16 0.65 C 292.63 0.65 297.9 -4.36 297.9 -12.09 C 297.9 -19.96 291.14 -23.6 286.39 -26.46 C 281.97 -28.93 279.5 -30.42 279.5 -33.41 C 279.5 -37.51 280.93 -39 285.16 -39 C 289.25 -39 290.75 -37.57 290.75 -33.41 Z M 314.34 -33.41 L 314.34 -12.09 C 314.34 -4.68 319.41 0.65 327.15 0.65 C 334.56 0.65 339.89 -4.42 339.89 -12.09 L 339.89 -33.41 C 339.89 -40.82 334.82 -46.15 327.15 -46.15 C 319.74 -46.15 314.34 -41.21 314.34 -33.41 Z M 321.49 -12.09 L 321.49 -33.41 C 321.49 -37.57 323.05 -39 327.15 -39 C 331.24 -39 332.74 -37.44 332.74 -33.41 L 332.74 -12.09 C 332.74 -8 331.18 -6.5 327.15 -6.5 C 322.99 -6.5 321.49 -8.06 321.49 -12.09 Z M 357.5 -45.5 L 357.5 0 L 378.95 0 L 378.95 -7.15 L 364.65 -7.15 L 364.65 -45.5 Z M 393.77 -45.5 L 393.77 -12.09 C 393.77 -4.68 398.84 0.65 406.58 0.65 C 413.99 0.65 419.32 -4.42 419.32 -12.09 L 419.32 -45.5 L 412.17 -45.5 L 412.17 -12.09 C 412.17 -8 410.61 -6.5 406.58 -6.5 C 402.42 -6.5 400.92 -8.06 400.92 -12.09 L 400.92 -45.5 Z M 459.94 -45.5 L 434.59 -45.5 L 434.59 -38.35 L 443.69 -38.35 L 443.69 0 L 450.84 0 L 450.84 -38.35 L 459.94 -38.35 Z M 475.8 -45.5 L 475.8 0 L 482.95 0 L 482.95 -45.5 Z M 500.57 -33.41 L 500.57 -12.09 C 500.57 -4.68 505.64 0.65 513.37 0.65 C 520.78 0.65 526.11 -4.42 526.11 -12.09 L 526.11 -33.41 C 526.11 -40.82 521.04 -46.15 513.37 -46.15 C 505.96 -46.15 500.57 -41.21 500.57 -33.41 Z M 507.72 -12.09 L 507.72 -33.41 C 507.72 -37.57 509.28 -39 513.37 -39 C 517.47 -39 518.96 -37.44 518.96 -33.41 L 518.96 -12.09 C 518.96 -8 517.4 -6.5 513.37 -6.5 C 509.21 -6.5 507.72 -8.06 507.72 -12.09 Z M 543.73 -45.5 L 543.73 0 L 550.88 0 L 550.88 -26.91 L 562.12 0 L 569.27 0 L 569.27 -45.5 L 562.12 -45.5 L 562.12 -17.09 L 550.23 -45.5 Z M 604.3 -33.41 L 604.3 -30.16 L 611.46 -30.16 L 611.46 -33.41 C 611.46 -41.15 606.19 -46.15 598.72 -46.15 C 590.91 -46.15 585.91 -40.88 585.91 -33.41 C 585.91 -26.26 591.83 -22.82 596.31 -20.21 C 601.12 -17.42 604.3 -15.67 604.3 -12.09 C 604.3 -7.93 602.81 -6.5 598.72 -6.5 C 594.49 -6.5 593.06 -8 593.06 -12.09 L 593.06 -15.34 L 585.91 -15.34 L 585.91 -12.09 C 585.91 -4.62 590.91 0.65 598.72 0.65 C 606.19 0.65 611.46 -4.36 611.46 -12.09 C 611.46 -19.96 604.7 -23.6 599.95 -26.46 C 595.53 -28.93 593.06 -30.42 593.06 -33.41 C 593.06 -37.51 594.49 -39 598.72 -39 C 602.81 -39 604.3 -37.57 604.3 -33.41 Z" stroke-linecap="round" />
</g>
</g>
</g>
<g transform="matrix(1.9211538461538462 0 0 1.9211538461538462 640.5567031062197 774.0209945612203)" id="tagline-c30a8453-da48-4b9f-8990-bfc9a3bb6587-logo"  >
<g style=""  paint-order="stroke"   >
		<g transform="matrix(1 0 0 1 0 0)" id="tagline-c30a8453-da48-4b9f-8990-bfc9a3bb6587-logo-path-0"  >
<path style="stroke: none; stroke-width: 0; stroke-dasharray: none; stroke-linecap: butt; stroke-dashoffset: 0; stroke-linejoin: miter; stroke-miterlimit: 4; fill: rgb(107,92,151); fill-rule: nonzero; opacity: 1;"  paint-order="stroke"  transform=" translate(-194.37, 6.825)" d="M 1.78 -2.63 L 1.78 -2.63 L 1.78 -11.02 Q 1.78 -12.43 2.65 -13.2 Q 3.51 -13.97 5.23 -13.97 Q 6.95 -13.97 7.83 -13.2 Q 8.72 -12.43 8.72 -11.02 L 8.72 -11.02 L 8.72 -9.03 L 7.25 -9.03 L 7.25 -11.02 Q 7.25 -12.7 5.25 -12.7 Q 3.25 -12.7 3.25 -11.02 L 3.25 -11.02 L 3.25 -2.63 Q 3.25 -0.94 5.25 -0.94 Q 7.25 -0.94 7.25 -2.63 L 7.25 -2.63 L 7.25 -3.78 L 8.72 -3.78 L 8.72 -2.63 Q 8.72 -1.22 7.85 -0.45 Q 6.99 0.32 5.27 0.32 Q 3.55 0.32 2.67 -0.45 Q 1.78 -1.22 1.78 -2.63 Z M 14.84 -2.63 L 14.84 -2.63 L 14.84 -11.02 Q 14.84 -12.43 15.73 -13.2 Q 16.63 -13.97 18.4 -13.97 Q 20.17 -13.97 21.08 -13.2 Q 21.98 -12.43 21.98 -11.02 L 21.98 -11.02 L 21.98 -2.63 Q 21.98 -1.22 21.09 -0.45 Q 20.19 0.32 18.42 0.32 Q 16.65 0.32 15.74 -0.45 Q 14.84 -1.22 14.84 -2.63 Z M 16.31 -11.02 L 16.31 -2.63 Q 16.31 -0.94 18.41 -0.94 Q 20.51 -0.94 20.51 -2.63 L 20.51 -2.63 L 20.51 -11.02 Q 20.51 -12.7 18.41 -12.7 Q 16.31 -12.7 16.31 -11.02 L 16.31 -11.02 Z M 30.1 0 L 28.64 0 L 28.64 -13.65 L 30.1 -13.65 L 34.67 -3.15 L 34.67 -13.65 L 36.13 -13.65 L 36.13 0 L 34.67 0 L 30.1 -10.5 L 30.1 0 Z M 44.56 0 L 43.1 0 L 43.1 -13.65 L 44.56 -13.65 L 49.13 -3.15 L 49.13 -13.65 L 50.59 -13.65 L 50.59 0 L 49.13 0 L 44.56 -10.5 L 44.56 0 Z M 63.75 0 L 57.56 0 L 57.56 -13.65 L 63.54 -13.65 L 63.54 -12.39 L 59.03 -12.39 L 59.03 -7.56 L 62.71 -7.56 L 62.71 -6.3 L 59.03 -6.3 L 59.03 -1.26 L 63.75 -1.26 L 63.75 0 Z M 69.35 -2.63 L 69.35 -2.63 L 69.35 -11.02 Q 69.35 -12.43 70.22 -13.2 Q 71.08 -13.97 72.8 -13.97 Q 74.52 -13.97 75.4 -13.2 Q 76.29 -12.43 76.29 -11.02 L 76.29 -11.02 L 76.29 -9.03 L 74.82 -9.03 L 74.82 -11.02 Q 74.82 -12.7 72.82 -12.7 Q 70.82 -12.7 70.82 -11.02 L 70.82 -11.02 L 70.82 -2.63 Q 70.82 -0.94 72.82 -0.94 Q 74.82 -0.94 74.82 -2.63 L 74.82 -2.63 L 74.82 -3.78 L 76.29 -3.78 L 76.29 -2.63 Q 76.29 -1.22 75.42 -0.45 Q 74.56 0.32 72.84 0.32 Q 71.12 0.32 70.24 -0.45 Q 69.35 -1.22 69.35 -2.63 Z M 83.99 -12.39 L 81.25 -12.39 L 81.25 -13.65 L 88.18 -13.65 L 88.18 -12.39 L 85.46 -12.39 L 85.46 0 L 83.99 0 L 83.99 -12.39 Z M 96.63 0 L 93.05 0 L 93.05 -1.26 L 94.1 -1.26 L 94.1 -12.39 L 93.05 -12.39 L 93.05 -13.65 L 96.63 -13.65 L 96.63 -12.39 L 95.57 -12.39 L 95.57 -1.26 L 96.63 -1.26 L 96.63 0 Z M 104.42 0 L 102.96 0 L 102.96 -13.65 L 104.42 -13.65 L 108.99 -3.15 L 108.99 -13.65 L 110.45 -13.65 L 110.45 0 L 108.99 0 L 104.42 -10.5 L 104.42 0 Z M 117.1 -2.63 L 117.1 -2.63 L 117.1 -11.02 Q 117.1 -12.43 117.96 -13.2 Q 118.82 -13.97 120.55 -13.97 Q 122.27 -13.97 123.15 -13.2 Q 124.03 -12.43 124.03 -11.02 L 124.03 -11.02 L 124.03 -9.87 L 122.57 -9.87 L 122.57 -11.02 Q 122.57 -12.7 120.57 -12.7 Q 118.57 -12.7 118.57 -11.02 L 118.57 -11.02 L 118.57 -2.63 Q 118.57 -1.83 118.9 -1.38 Q 119.24 -0.94 120.14 -0.94 Q 121.03 -0.94 121.8 -1.66 Q 122.57 -2.37 122.57 -3.05 L 122.57 -3.05 L 122.57 -5.67 L 120.21 -5.67 L 120.21 -6.93 L 124.03 -6.93 L 124.03 0 L 123.4 0 L 122.85 -1.34 Q 122.41 -0.58 121.7 -0.13 Q 120.99 0.32 120.15 0.32 L 120.15 0.32 Q 117.1 0.32 117.1 -2.63 Z M 140.18 -4.89 L 136.71 -13.65 L 138.27 -13.65 L 140.92 -6.61 L 143.56 -13.65 L 145.11 -13.65 L 141.64 -4.87 L 141.64 0 L 140.18 0 L 140.18 -4.89 Z M 150.19 -2.63 L 150.19 -2.63 L 150.19 -11.02 Q 150.19 -12.43 151.08 -13.2 Q 151.97 -13.97 153.75 -13.97 Q 155.52 -13.97 156.42 -13.2 Q 157.33 -12.43 157.33 -11.02 L 157.33 -11.02 L 157.33 -2.63 Q 157.33 -1.22 156.43 -0.45 Q 155.54 0.32 153.77 0.32 Q 151.99 0.32 151.09 -0.45 Q 150.19 -1.22 150.19 -2.63 Z M 151.66 -11.02 L 151.66 -2.63 Q 151.66 -0.94 153.76 -0.94 Q 155.86 -0.94 155.86 -2.63 L 155.86 -2.63 L 155.86 -11.02 Q 155.86 -12.7 153.76 -12.7 Q 151.66 -12.7 151.66 -11.02 L 151.66 -11.02 Z M 163.77 -2.63 L 163.77 -2.63 L 163.77 -13.65 L 165.25 -13.65 L 165.25 -2.63 Q 165.25 -0.94 167.34 -0.94 Q 169.44 -0.94 169.44 -2.63 L 169.44 -2.63 L 169.44 -13.65 L 170.92 -13.65 L 170.92 -2.63 Q 170.92 -1.22 170.02 -0.45 Q 169.13 0.32 167.35 0.32 Q 165.57 0.32 164.67 -0.45 Q 163.77 -1.22 163.77 -2.63 Z M 186.53 -12.39 L 183.79 -12.39 L 183.79 -13.65 L 190.72 -13.65 L 190.72 -12.39 L 188 -12.39 L 188 0 L 186.53 0 L 186.53 -12.39 Z M 195.9 -2.63 L 195.9 -2.63 L 195.9 -11.02 Q 195.9 -12.43 196.8 -13.2 Q 197.69 -13.97 199.46 -13.97 Q 201.24 -13.97 202.14 -13.2 Q 203.04 -12.43 203.04 -11.02 L 203.04 -11.02 L 203.04 -2.63 Q 203.04 -1.22 202.15 -0.45 Q 201.26 0.32 199.48 0.32 Q 197.71 0.32 196.81 -0.45 Q 195.9 -1.22 195.9 -2.63 Z M 197.37 -11.02 L 197.37 -2.63 Q 197.37 -0.94 199.47 -0.94 Q 201.58 -0.94 201.58 -2.63 L 201.58 -2.63 L 201.58 -11.02 Q 201.58 -12.7 199.47 -12.7 Q 197.37 -12.7 197.37 -11.02 L 197.37 -11.02 Z M 222.61 0 L 217.3 0 L 217.3 -13.65 L 218.77 -13.65 L 218.77 -1.26 L 222.61 -1.26 L 222.61 0 Z M 227.58 -2.63 L 227.58 -2.63 L 227.58 -11.02 Q 227.58 -12.43 228.47 -13.2 Q 229.36 -13.97 231.14 -13.97 Q 232.91 -13.97 233.81 -13.2 Q 234.72 -12.43 234.72 -11.02 L 234.72 -11.02 L 234.72 -2.63 Q 234.72 -1.22 233.82 -0.45 Q 232.93 0.32 231.16 0.32 Q 229.38 0.32 228.48 -0.45 Q 227.58 -1.22 227.58 -2.63 Z M 229.05 -11.02 L 229.05 -2.63 Q 229.05 -0.94 231.15 -0.94 Q 233.25 -0.94 233.25 -2.63 L 233.25 -2.63 L 233.25 -11.02 Q 233.25 -12.7 231.15 -12.7 Q 229.05 -12.7 229.05 -11.02 L 229.05 -11.02 Z M 241.06 -2.63 L 241.06 -2.63 L 241.06 -11.02 Q 241.06 -12.43 241.92 -13.2 Q 242.78 -13.97 244.5 -13.97 Q 246.22 -13.97 247.11 -13.2 Q 247.99 -12.43 247.99 -11.02 L 247.99 -11.02 L 247.99 -9.03 L 246.52 -9.03 L 246.52 -11.02 Q 246.52 -12.7 244.52 -12.7 Q 242.52 -12.7 242.52 -11.02 L 242.52 -11.02 L 242.52 -2.63 Q 242.52 -0.94 244.52 -0.94 Q 246.52 -0.94 246.52 -2.63 L 246.52 -2.63 L 246.52 -3.78 L 247.99 -3.78 L 247.99 -2.63 Q 247.99 -1.22 247.13 -0.45 Q 246.27 0.32 244.54 0.32 Q 242.82 0.32 241.94 -0.45 Q 241.06 -1.22 241.06 -2.63 Z M 254.64 0 L 253.17 0 L 256.26 -13.65 L 258.46 -13.65 L 261.55 0 L 260.08 0 L 259.36 -3.15 L 255.35 -3.15 L 254.64 0 Z M 257.34 -12.01 L 255.63 -4.41 L 259.07 -4.41 L 257.34 -12.01 Z M 272.56 0 L 267.25 0 L 267.25 -13.65 L 268.72 -13.65 L 268.72 -1.26 L 272.56 -1.26 L 272.56 0 Z M 291.64 0 L 285.45 0 L 285.45 -13.65 L 291.43 -13.65 L 291.43 -12.39 L 286.92 -12.39 L 286.92 -7.56 L 290.6 -7.56 L 290.6 -6.3 L 286.92 -6.3 L 286.92 -1.26 L 291.64 -1.26 L 291.64 0 Z M 297.83 0 L 296.3 0 L 299.45 -7.03 L 296.51 -13.65 L 298.04 -13.65 L 300.29 -8.57 L 302.58 -13.65 L 304.11 -13.65 L 301.07 -6.85 L 304.11 0 L 302.58 0 L 300.21 -5.31 L 297.83 0 Z M 311.08 0 L 309.6 0 L 309.6 -13.65 L 312.78 -13.65 Q 314.42 -13.65 315.27 -12.87 Q 316.11 -12.1 316.11 -10.71 L 316.11 -10.71 L 316.11 -7.14 Q 316.11 -5.73 315.27 -4.97 Q 314.43 -4.2 312.78 -4.2 L 312.78 -4.2 L 311.08 -4.2 L 311.08 0 Z M 311.08 -12.39 L 311.08 -5.46 L 312.78 -5.46 Q 314.65 -5.46 314.65 -7.14 L 314.65 -7.14 L 314.65 -10.71 Q 314.65 -11.5 314.17 -11.95 Q 313.68 -12.39 312.78 -12.39 L 312.78 -12.39 L 311.08 -12.39 Z M 328.44 0 L 322.25 0 L 322.25 -13.65 L 328.23 -13.65 L 328.23 -12.39 L 323.72 -12.39 L 323.72 -7.56 L 327.4 -7.56 L 327.4 -6.3 L 323.72 -6.3 L 323.72 -1.26 L 328.44 -1.26 L 328.44 0 Z M 335.83 0 L 334.36 0 L 334.36 -13.65 L 337.53 -13.65 Q 339.17 -13.65 340.02 -12.87 Q 340.87 -12.1 340.87 -10.71 L 340.87 -10.71 L 340.87 -7.77 Q 340.87 -5.63 339.02 -5.04 L 339.02 -5.04 L 341.6 0 L 339.99 0 L 337.53 -4.83 L 335.83 -4.83 L 335.83 0 Z M 335.83 -12.39 L 335.83 -6.09 L 337.53 -6.09 Q 339.4 -6.09 339.4 -7.77 L 339.4 -7.77 L 339.4 -10.71 Q 339.4 -11.5 338.92 -11.95 Q 338.43 -12.39 337.53 -12.39 L 337.53 -12.39 L 335.83 -12.39 Z M 348.58 -12.39 L 345.84 -12.39 L 345.84 -13.65 L 352.77 -13.65 L 352.77 -12.39 L 350.05 -12.39 L 350.05 0 L 348.58 0 L 348.58 -12.39 Z M 361.22 0 L 357.64 0 L 357.64 -1.26 L 358.69 -1.26 L 358.69 -12.39 L 357.64 -12.39 L 357.64 -13.65 L 361.22 -13.65 L 361.22 -12.39 L 360.16 -12.39 L 360.16 -1.26 L 361.22 -1.26 L 361.22 0 Z M 367.12 -2.63 L 367.12 -2.63 L 367.12 -4.41 L 368.59 -4.41 L 368.59 -2.54 Q 368.59 -1.78 369.12 -1.36 Q 369.65 -0.94 370.67 -0.94 Q 371.7 -0.94 372.23 -1.36 Q 372.75 -1.78 372.75 -2.51 Q 372.75 -3.23 372.6 -3.66 Q 372.44 -4.09 371.95 -4.57 L 371.95 -4.57 L 368.25 -8.19 Q 367.61 -8.84 367.37 -9.46 Q 367.12 -10.08 367.12 -11.02 L 367.12 -11.02 Q 367.12 -12.43 368 -13.2 Q 368.87 -13.97 370.63 -13.97 L 370.63 -13.97 Q 374.02 -13.97 374.02 -11.02 L 374.02 -11.02 L 374.02 -9.24 L 372.54 -9.24 L 372.54 -11.1 Q 372.54 -11.86 372.05 -12.28 Q 371.55 -12.7 370.57 -12.7 Q 369.58 -12.7 369.08 -12.28 Q 368.59 -11.86 368.59 -11.13 Q 368.59 -10.4 368.74 -9.98 Q 368.89 -9.56 369.39 -9.1 L 369.39 -9.1 L 373.15 -5.49 Q 373.76 -4.81 373.99 -4.19 Q 374.22 -3.57 374.22 -2.63 L 374.22 -2.63 Q 374.22 0.32 370.67 0.32 Q 367.12 0.32 367.12 -2.63 Z M 386.96 0 L 380.77 0 L 380.77 -13.65 L 386.74 -13.65 L 386.74 -12.39 L 382.23 -12.39 L 382.23 -7.56 L 385.91 -7.56 L 385.91 -6.3 L 382.23 -6.3 L 382.23 -1.26 L 386.96 -1.26 L 386.96 0 Z" stroke-linecap="round" />
</g>
</g>
</g>
<g transform="matrix(1.9211538461538462 0 0 1.9211538461538462 639.9375624999999 420.35569654067496)" id="tagline-2e0f5177-1db6-42fe-993d-886549db773f-logo"  >
<g style=""  paint-order="stroke"   >
		<g transform="matrix(1 0 0 1 0 0)" id="tagline-2e0f5177-1db6-42fe-993d-886549db773f-logo-path-0"  >
<path style="stroke: none; stroke-width: 0; stroke-dasharray: none; stroke-linecap: butt; stroke-dashoffset: 0; stroke-linejoin: miter; stroke-miterlimit: 4; fill: rgb(125,93,150); fill-rule: nonzero; opacity: 1;"  paint-order="stroke"  transform=" translate(-24.02, 23.17)" d="M 36.47 0 L 7.35 -43.48 L 8.97 -46.34 L 11.25 -46.34 L 41.93 -1.17 L 39.07 0 L 36.47 0 Z M 5.53 0 L 5.53 -46.34 L 10.72 -46.34 L 10.72 0 L 5.53 0 Z M 37.31 0 L 37.31 -46.34 L 42.51 -46.34 L 42.51 0 L 37.31 0 Z" stroke-linecap="round" />
</g>
</g>
</g>
</svg>